<svg viewBox="-1 0 512 512.00017" xmlns="http://www.w3.org/2000/svg"><path d="m162.570312 372.511719s0 .003906.003907.003906c0 .003906.003906.007813.003906.011719-.003906-.007813-.007813-.011719-.007813-.015625zm0 0"/><path d="m162.628906 372.597656.007813.011719zm0 0"/><path d="m496.160156 449.445312-124.558594-84.652343c8.027344-12.886719 14.804688-17.53125 14.804688-28.390625 0-14.488282-14.410156-26.210938-20.613281-16.761719-2.28125 3.476563-1.316407 8.152344 2.171875 10.441406.089844.101563 3.367187 1.992188 3.367187 6.320313 0 3.335937.78125 1.210937-23.585937 36.320312-.03125 0-.0625.011719-.089844.023438l-15.769531 22.710937c-.0625-.050781-.121094-.089843-.179688-.140625.019531.128906.046875.269532.078125.410156-19.367187 27.875-10.675781 15.378907-19.394531 27.941407-4.101563 5.925781-13.710937 3.199219-13.710937-4.332031 0-3.453126-3.03125 2.027343 55.035156-81.636719 2.371094-3.414063 1.515625-8.109375-1.898438-10.480469-3.417968-2.371094-8.121094-1.527344-10.492187 1.890625l-8.253907 11.886719c-11.09375-8.691406-22.117187-17.726563-33.042968-26.992188 7.027344-6.371094 13.878906-12.703125 20.5625-18.984375 3.023437-2.855469 3.175781-7.628906.320312-10.652343-2.851562-3.035157-7.625-3.175782-10.660156-.332032-7.054688 6.640625-14.300781 13.324219-21.75 20.046875-7.445312-6.492187-14.832031-13.082031-22.148438-19.746093 79.46875-73.988282 159.519532-164.613282 224.445313-248.433594-10.554687 38.300781-45.277344 115.351562-158.960937 227.359375-2.964844 2.921875-2.996094 7.695312-.082032 10.660156 2.925782 2.964844 7.699219 2.996094 10.664063.070313 67.988281-66.96875 116.589843-129.8125 144.46875-186.765626 21.867187-44.683593 23.566406-71.304687 23.566406-78.410156 0-9.628906-9.742187-11.085937-13.660156-5.757812-1.273438 1.75-108.164063 146.96875-241.558594 271.035156-133.371094-124.046875-240.292969-269.285156-241.566406-271.035156-3.859375-5.246094-13.6601565-3.964844-13.6601565 5.757812 0 8.886719 2.4843755 42.269532 34.3710935 98.902344 2.039063 3.628906 6.632813 4.902344 10.261719 2.863281 3.628906-2.039062 4.914063-6.632812 2.875-10.261719-15.519531-27.554687-23.628906-49.101562-27.859375-64.429687 83.902344 108.375 197.269531 233.394531 304.8125 317.507813l-16.300781 23.488281c-86.523438-68.585938-184.957031-158.128907-245.277344-251.210938-2.269531-3.496093-6.933594-4.492187-10.433594-2.230469-3.484375 2.273438-4.480469 6.9375-2.21875 10.433594 36.703125 56.621094 90.378907 116.960938 160.175781 180.132813-10.90625 9.265625-21.929687 18.292969-33.023437 26.984375l-12.160156-17.515625c-7.113281-10.25-21.25-12.808594-31.46875-5.6875-10.238281 7.105469-12.792969 21.222656-5.675781 31.464843l10.78125 15.535157-124.566407 84.652343c-14.90625 10.121094-18.785156 30.492188-8.664062 45.394532.101562.066406 19.460937 29.648437 46.984375 10.984375l105.75-71.867188c.003906-.003906.007812-.003906.011718-.007812.003907 0 .007813-.003907.011719-.007813l19.347657-13.136718c6.167968 7.347656 10.332031 21.164062 26.589843 21.164062 18.1875 0 28.832031-20.625 18.503907-35.488281l-11.921876-17.175781c15.265626-12.109376 30.050782-24.1875 44.3125-36.207032 14.21875 11.980469 28.992188 24.046875 44.320313 36.207032-9.203125 14.667968-15.941406 19.0625-15.941406 30.03125 0 22.242187 28.644531 30.976562 41.175781 12.925781l7.949219-11.457031c18.984375 12.898437 106.363281 72.273437 125.121093 85.019531 22.570313 15.339843 52.609376-2.734375 52.609376-29.304688 0-10.472656-5.003907-20.761719-14.300782-27.074219zm-476.472656 39.246094c-.4375-1.011718-6.953125-7.65625-3.761719-17.640625h.003907l17.839843 25.328125c-.429687-.113281-8.851562.015625-14.082031-7.6875zm28.472656 1.9375-21.902344-31.09375c7.253907-4.925781 7.144532-4.855468 14.519532-9.863281l21.894531 31.085937c-8.976563 6.105469-5.546875 3.773438-14.511719 9.871094zm26.988282-18.335937-21.90625-31.097657 14.671874-9.96875 21.902344 31.09375c-9.070312 6.164063-5.59375 3.796876-14.667968 9.972657zm27.140624-18.445313-21.898437-31.089844 14.878906-10.113281 21.898438 31.09375zm27.347657-18.585937-21.898438-31.09375c8.285157-5.628907 5.542969-3.765625 13.828125-9.398438l21.898438 31.089844zm26.304687-17.875-.003906.003906-21.894531-31.089844c8.296875-5.640625 5.132812-3.492187 13.417969-9.125l21.675781 31.234375zm52.613282 8.167969c-3.34375 2.339843-8.113282 1.53125-10.484376-1.886719-11.269531-16.238281-11.402343-16.429688-10.117187-14.578125-1.601563-2.304688-25.125-36.34375-25.125-36.34375-.042969-.011719-.070313-.011719-.113281-.023438 0 0-.003906-.007812-.011719-.015625-.003906-.007812-.003906-.007812-.007813-.015625 0 .003906.003907.007813.003907.007813-.003907-.003907-.011719-.015625-.019531-.023438.003906.003907.011718.011719.011718.015625-.007812-.011718-.011718-.019531-.019531-.03125-.003906-.003906-.007813-.011718-.011719-.019531 0 .003906.003906.007813.003906.007813-.007812-.011719-.019531-.027344-.03125-.039063-.003906-.011719-.007812-.015625-.015624-.023437.003906.003906.007812.007812.007812.007812-.003906-.007812-.011719-.015625-.019531-.027344-.015625-.023437-.027344-.039062-.035157-.050781 0-.003906-.003906-.003906-.003906-.007813v.003907c-.007812-.015625-.015625-.023438-.011718-.019531-.539063-.777344-2.667969-3.84375-9.929688-14.3125-10.613281-16.363282-14.316406-17.9375-13.367188-23.15625.722657-4.085938 4.589844-6.8125 8.734376-6.058594 5.230468.949218 5.414062 4.988281 17.445312 21.246094 33.65625 48.566406 44.90625 64.703124 45.015625 64.863281 2.351563 3.390625 1.503906 8.121093-1.898437 10.480469zm-6.253907-48.660157-16.308593-23.496093c12.027343-9.40625 23.96875-19.195313 35.746093-29.234376 7.117188 6.320313 14.390625 12.660157 21.828125 19.035157-13.304687 11.183593-27.074218 22.429687-41.265625 33.695312zm139.03125 31.515625 21.679688-31.222656c7.925781 5.386719 5.476562 3.722656 13.410156 9.117188l-21.894531 31.082031zm39.476563 26.832032c.058594.039062-.019532-.011719-.394532-.269532.058594.039063.125.082032.1875.125-.113281-.074218-.191406-.128906-.25-.167968 0 0 0 0-.003906-.003907-.027344-.019531-.050781-.03125-.066406-.046875-.007812-.003906-.015625-.007812-.023438-.015625-.03125-.019531-.046874-.03125-.03125-.019531-1.21875-.828125-4.632812-3.148438-13.226562-8.988281l21.894531-31.085938c8.320313 5.65625 5.5625 3.78125 13.832031 9.398438l-21.898437 31.085937c-.007813-.003906-.011719-.007812-.019531-.011718zm12.492187 8.484374 21.894531-31.082031 14.875 10.117188-21.890624 31.078125c-8.992188-6.113282-6.011719-4.085938-14.878907-10.113282zm42.019531 28.550782-14.671874-9.957032 21.898437-31.09375c9.078125 6.167969 5.59375 3.800782 14.671875 9.96875l-21.894531 31.085938zm26.988282 18.34375c-8.59375-5.835938-5.980469-4.058594-14.515625-9.859375l-.003907-.003907 21.894532-31.082031h.007812c8.957032 6.085938 5.539063 3.765625 14.515625 9.863281zm28.464844-1.929688c-5.332032 7.863282-13.972657 7.652344-14.074219 7.675782l17.835937-25.316407c3.207032 9.972657-3.332031 16.628907-3.761718 17.640625zm0 0"/></svg>