<?xml version="1.0" encoding="iso-8859-1"?>
<!-- Generator: Adobe Illustrator 19.0.0, SVG Export Plug-In . SVG Version: 6.00 Build 0)  -->
<svg version="1.1" id="Capa_1" xmlns="http://www.w3.org/2000/svg" x="0px" y="0px"
     viewBox="0 0 512 512" style="enable-background:new 0 0 512 512;" xml:space="preserve">
<path style="fill:#737882;" d="M23.329,157.848L23.329,157.848c12.754-7.363,29.062-2.994,36.426,9.76l74.884,129.703
	l-46.186,26.665L13.569,194.274C6.206,181.52,10.575,165.212,23.329,157.848z"/>
<rect x="85.817" y="333.01" transform="matrix(-0.5 -0.866 0.866 -0.5 -101.6897 651.7486)" style="fill:#4BB9F5;" width="102.958" height="44.439"/>
<g>
	<path style="fill:#737882;" d="M380.9,89.559L380.9,89.559c42.134,0,78.06-30.532,84.855-72.115L466.971,10h-36.667l-2.489,15.51
		c-3.926,24.462-18.213,46.041-39.199,59.208L380.9,89.559z"/>
	<path style="fill:#737882;" d="M381.512,89.559L381.512,89.559c10.187,29.78,43.275,44.915,72.466,33.149l8.527-3.437
		l-12.297-24.024l-14.614,4.745c-15.045,4.885-31.467,3.043-45.056-5.054L381.512,89.559z"/>
	<path style="fill:#737882;" d="M232.728,283.763L232.728,283.763c0,22.364-15.565,41.714-37.41,46.507l-80.308,17.617
		c-29.428,6.456-50.397,32.523-50.397,62.651V502h437.383v-91.426c0-30.145-20.991-56.222-50.44-62.661l-80.788-17.664
		c-21.86-4.78-37.442-24.137-37.442-46.514V283.6L232.728,283.763z"/>
</g>
<path style="fill:#878791;" d="M323.721,283.681h-80.833c-39.005,0-70.625-31.62-70.625-70.625v-71.013
	c0-60.215,48.814-109.03,109.03-109.03h4.023c60.215,0,109.03,48.814,109.03,109.03v71.013
	C394.346,252.061,362.726,283.681,323.721,283.681z"/>
<path style="fill:#FFCDAC;" d="M337.055,192.3h-107.5c-16.569,0-30-13.431-30-30v-7.905c0-16.569,13.431-30,30-30h107.5
	c16.569,0,30,13.431,30,30v7.905C367.055,178.869,353.623,192.3,337.055,192.3z"/>
<path d="M453.696,338.146c-5.393-1.187-10.726,2.233-11.908,7.629c-1.182,5.395,2.233,10.727,7.629,11.908l0.515,0.114
	c0.753,0.173,1.506,0.256,2.247,0.256c4.556,0,8.674-3.134,9.737-7.764c1.236-5.383-2.125-10.748-7.508-11.984L453.696,338.146z"/>
<path d="M493.743,361.856c-3.63-4.163-9.947-4.597-14.109-0.968c-4.163,3.628-4.597,9.945-0.968,14.108
	c8.596,9.863,13.33,22.498,13.33,35.577V492h-64.698v-56.5c0-5.522-4.478-10-10-10s-10,4.478-10,10V492h-248v-58.986
	c0-5.522-4.478-10-10-10s-10,4.478-10,10V492H74.613v-81.462c0-25.235,17.891-47.476,42.54-52.884l80.308-17.617
	c22.951-5.035,40.396-23.784,44.398-46.383c0.344,0.004,0.684,0.026,1.029,0.026h80.833c0.162,0,0.321-0.011,0.482-0.012
	c4.018,22.596,21.47,41.33,44.43,46.351l43.394,9.488c0.72,0.157,1.438,0.232,2.146,0.232c4.598,0,8.737-3.19,9.76-7.866
	c1.18-5.395-2.238-10.726-7.634-11.905l-43.393-9.488c-14.698-3.213-25.932-15.039-28.836-29.406
	c34.637-9.04,60.277-40.589,60.277-78.018v-71.014c0-4.253-0.229-8.453-0.666-12.591c0.914,0.47,1.837,0.925,2.778,1.356
	c8.642,3.952,17.793,5.934,26.967,5.934c8.198,0,16.415-1.584,24.292-4.759l8.526-3.438c2.604-1.05,4.647-3.146,5.63-5.777
	c0.981-2.631,0.813-5.554-0.468-8.054L459.109,90.69c-2.236-4.371-7.315-6.473-11.99-4.954l-14.612,4.744
	c-5.168,1.678-10.534,2.373-15.845,2.138c9.528-3.826,18.461-9.163,26.394-15.904c17.334-14.731,28.9-35.208,32.569-57.658
	l1.216-7.444c0.473-2.896-0.35-5.853-2.249-8.089c-1.9-2.235-4.687-3.523-7.62-3.523h-36.666c-4.911,0-9.096,3.566-9.874,8.415
	l-2.489,15.51c-3.418,21.298-15.738,40.11-33.837,51.788c-21.397-31.764-57.693-52.699-98.789-52.699h-4.022
	c-65.634,0-119.03,53.396-119.03,119.029v71.014c0,37.24,25.385,68.65,59.757,77.87c-2.847,14.436-14.102,26.341-28.845,29.575
	l-34.378,7.542l-14.347-24.85l14.287-8.249c4.783-2.762,6.422-8.877,3.66-13.66c-2.761-4.782-8.877-6.422-13.66-3.66l-10.438,6.027
	L68.415,162.608c-10.107-17.509-32.576-23.529-50.086-13.42C0.821,159.297-5.2,181.766,4.908,199.274l69.885,121.042l-10.439,6.027
	c-4.783,2.762-6.422,8.877-3.66,13.66c1.853,3.208,5.213,5.002,8.67,5.002c1.696,0,3.416-0.433,4.99-1.342l14.288-8.249l5.528,9.575
	c-8.894,4.698-16.827,11.172-23.187,19.077c-10.557,13.124-16.371,29.628-16.371,46.471V502c0,5.522,4.478,10,10,10h437.384
	c5.522,0,10-4.478,10-10v-91.426C511.996,392.663,505.514,375.361,493.743,361.856z M437.69,27.095L438.828,20h16.26
	c-4.588,20.864-17.429,38.14-34.748,48.617C429.234,56.48,435.25,42.286,437.69,27.095z M438.683,109.503l6.506-2.112l3.413,6.667
	c-11.092,3.992-23.034,3.498-33.824-1.438c-0.05-0.023-0.099-0.046-0.148-0.069C422.683,113.053,430.839,112.05,438.683,109.503z
	 M182.263,213.057v-71.014c0-54.604,44.425-99.029,99.03-99.029h4.022c54.605,0,99.03,44.425,99.03,99.029v71.014
	c0,33.428-27.196,60.624-60.625,60.624h-80.833C209.459,273.681,182.263,246.484,182.263,213.057z M113.249,338.035l-7.287-12.62
	l10.584-6.111l10.584-6.111l11.17,19.347L113.249,338.035z M58.011,251.251l28.866-16.666l12.051,20.873l-28.866,16.665
	L58.011,251.251z M35.96,213.058l28.866-16.667l12.051,20.873L48.011,233.93L35.96,213.058z M20.565,176.628
	c1.151-4.3,3.909-7.894,7.765-10.119c2.618-1.512,5.479-2.229,8.306-2.229c5.764,0,11.377,2.989,14.46,8.329l3.731,6.463
	L25.96,195.738l-3.731-6.463C20.003,185.419,19.412,180.929,20.565,176.628z M80.062,289.444l28.866-16.665l12.051,20.873
	l-28.865,16.666L80.062,289.444z"/>
<path d="M377.055,162.3v-7.905c0-22.056-17.944-40-40-40h-107.5c-22.056,0-40,17.944-40,40v7.905c0,22.056,17.944,40,40,40h107.5
	C359.111,202.3,377.055,184.355,377.055,162.3z M209.555,162.3v-7.905c0-11.028,8.972-20,20-20h107.5c11.028,0,20,8.972,20,20v7.905
	c0,11.028-8.972,20-20,20h-107.5C218.527,182.3,209.555,173.328,209.555,162.3z"/>
<path d="M257.305,148.348h-18c-5.522,0-10,4.478-10,10s4.478,10,10,10h18c5.522,0,10-4.478,10-10S262.827,148.348,257.305,148.348z"
	/>
<path d="M327.305,148.348h-18c-5.522,0-10,4.478-10,10s4.478,10,10,10h18c5.522,0,10-4.478,10-10S332.827,148.348,327.305,148.348z"
	/>
<path d="M142.226,389.93c-1.859,1.86-2.93,4.44-2.93,7.07s1.07,5.21,2.93,7.069c1.86,1.86,4.44,2.931,7.07,2.931
	s5.21-1.07,7.07-2.931c1.859-1.859,2.93-4.439,2.93-7.069s-1.07-5.21-2.93-7.07c-1.86-1.86-4.44-2.93-7.07-2.93
	S144.096,388.069,142.226,389.93z"/>
<g>
</g>
<g>
</g>
<g>
</g>
<g>
</g>
<g>
</g>
<g>
</g>
<g>
</g>
<g>
</g>
<g>
</g>
<g>
</g>
<g>
</g>
<g>
</g>
<g>
</g>
<g>
</g>
<g>
</g>
</svg>
